<?xml version="1.0" encoding="utf-8"?>
<!-- Generator: Adobe Illustrator 16.0.0, SVG Export Plug-In . SVG Version: 6.00 Build 0)  -->
<!DOCTYPE svg PUBLIC "-//W3C//DTD SVG 1.1//EN" "http://www.w3.org/Graphics/SVG/1.1/DTD/svg11.dtd">
<svg version="1.1" id="Layer_1" xmlns="http://www.w3.org/2000/svg" xmlns:xlink="http://www.w3.org/1999/xlink" x="0px" y="0px"
	 width="300px" height="88.474px" viewBox="0 0 300 88.474" enable-background="new 0 0 300 88.474" xml:space="preserve">
<g>
	<path fill="#0E405F" d="M137.278,39.217c0.921-0.557,1.993-0.968,3.217-1.235c1.224-0.267,2.502-0.4,3.835-0.4
		c1.259,0,2.272,0.17,3.036,0.509c0.764,0.34,1.344,0.781,1.745,1.327c0.399,0.545,0.666,1.146,0.8,1.799
		c0.132,0.654,0.2,1.308,0.2,1.963c0,1.454-0.037,2.872-0.11,4.253c-0.072,1.382-0.108,2.691-0.108,3.926
		c0,0.896,0.036,1.745,0.108,2.544c0.073,0.8,0.207,1.539,0.4,2.218h-2.145l-0.763-2.544h-0.182c-0.218,0.34-0.49,0.672-0.818,0.999
		c-0.327,0.328-0.722,0.619-1.182,0.873c-0.46,0.255-0.995,0.467-1.599,0.636c-0.606,0.17-1.296,0.254-2.072,0.254
		c-0.775,0-1.497-0.121-2.163-0.363c-0.667-0.242-1.242-0.587-1.726-1.035c-0.485-0.448-0.867-0.988-1.146-1.618
		c-0.279-0.63-0.418-1.345-0.418-2.145c0-1.066,0.218-1.957,0.655-2.672c0.437-0.715,1.048-1.284,1.836-1.708
		c0.786-0.424,1.731-0.727,2.834-0.909c1.103-0.182,2.321-0.272,3.653-0.272c0.34,0,0.673,0,1,0s0.66,0.024,1,0.072
		c0.072-0.727,0.109-1.382,0.109-1.962c0-1.333-0.267-2.266-0.8-2.8c-0.533-0.532-1.503-0.799-2.908-0.799
		c-0.413,0-0.854,0.032-1.327,0.094c-0.472,0.062-0.957,0.149-1.454,0.261c-0.497,0.112-0.97,0.249-1.417,0.412
		c-0.448,0.162-0.842,0.342-1.182,0.542L137.278,39.217z M142.439,53.794c0.679,0,1.284-0.091,1.817-0.273
		c0.534-0.181,0.994-0.411,1.382-0.69c0.387-0.278,0.708-0.587,0.963-0.927c0.254-0.34,0.442-0.666,0.563-0.981v-3.017
		c-0.34-0.024-0.685-0.042-1.037-0.055c-0.352-0.012-0.696-0.019-1.036-0.019c-0.751,0-1.485,0.043-2.199,0.127
		c-0.715,0.086-1.344,0.243-1.89,0.473c-0.545,0.23-0.981,0.546-1.309,0.946c-0.327,0.4-0.491,0.903-0.491,1.508
		c0,0.848,0.303,1.545,0.909,2.09C140.718,53.521,141.494,53.794,142.439,53.794z"/>
	<path fill="#0E405F" d="M168.634,49.796c0,1.236,0.011,2.357,0.036,3.363c0.023,1.006,0.133,1.993,0.328,2.962h-1.963l-0.728-2.581
		h-0.145c-0.485,0.849-1.188,1.551-2.108,2.108c-0.922,0.557-2,0.836-3.236,0.836c-2.423,0-4.223-0.764-5.398-2.291
		s-1.763-3.913-1.763-7.16c0-3.102,0.733-5.459,2.199-7.071s3.484-2.417,6.053-2.417c0.896,0,1.605,0.049,2.126,0.145
		c0.521,0.098,1.084,0.255,1.691,0.473v-7.561h2.908V49.796z M161.291,53.939c1.236,0,2.217-0.32,2.944-0.963
		c0.728-0.641,1.224-1.618,1.491-2.926v-9.015c-0.437-0.339-0.934-0.581-1.491-0.727c-0.558-0.146-1.296-0.218-2.218-0.218
		c-1.671,0-2.98,0.552-3.926,1.655c-0.944,1.103-1.417,2.866-1.417,5.289c0,0.993,0.078,1.914,0.236,2.762
		c0.157,0.849,0.418,1.576,0.781,2.181c0.363,0.606,0.842,1.085,1.436,1.436C159.722,53.765,160.442,53.939,161.291,53.939z"/>
	<path fill="#0E405F" d="M178.99,48.523l1.018,3.454h0.036l0.909-3.526l4.071-10.579h3.126l-7.743,18.576h-1.237l-7.887-18.576
		h3.344L178.99,48.523z"/>
	<path fill="#0E405F" d="M189.124,46.96c0-3.077,0.684-5.434,2.054-7.07c1.369-1.636,3.338-2.454,5.907-2.454
		c1.357,0,2.538,0.225,3.544,0.673c1.005,0.449,1.835,1.09,2.49,1.927c0.655,0.836,1.139,1.842,1.455,3.017
		c0.314,1.175,0.473,2.478,0.473,3.907c0,3.079-0.686,5.435-2.054,7.071c-1.369,1.636-3.339,2.454-5.907,2.454
		c-1.357,0-2.54-0.224-3.544-0.672c-1.006-0.448-1.836-1.09-2.49-1.927c-0.655-0.836-1.139-1.841-1.454-3.018
		C189.281,49.693,189.124,48.391,189.124,46.96z M192.141,46.96c0,0.922,0.091,1.806,0.273,2.654
		c0.182,0.848,0.466,1.587,0.854,2.217c0.387,0.631,0.896,1.14,1.527,1.526c0.629,0.389,1.393,0.582,2.29,0.582
		c3.295,0.025,4.943-2.301,4.943-6.979c0-0.945-0.091-1.841-0.272-2.689c-0.182-0.849-0.467-1.587-0.855-2.217
		c-0.387-0.63-0.896-1.133-1.526-1.509c-0.631-0.375-1.394-0.563-2.29-0.563C193.789,39.958,192.141,42.284,192.141,46.96z"/>
	<path fill="#0E405F" d="M221.306,54.849c-0.728,0.533-1.587,0.939-2.581,1.217s-2.035,0.418-3.127,0.418
		c-1.405,0-2.593-0.224-3.562-0.672c-0.97-0.448-1.763-1.09-2.381-1.927c-0.618-0.836-1.067-1.841-1.346-3.018
		c-0.278-1.174-0.417-2.477-0.417-3.908c0-3.077,0.678-5.434,2.035-7.07c1.357-1.636,3.308-2.454,5.853-2.454
		c1.163,0,2.15,0.091,2.962,0.273c0.811,0.181,1.545,0.442,2.199,0.781l-0.835,2.508c-0.559-0.314-1.176-0.563-1.854-0.745
		c-0.679-0.182-1.405-0.273-2.181-0.273c-3.441,0-5.162,2.327-5.162,6.979c0,0.922,0.09,1.8,0.273,2.636
		c0.181,0.836,0.484,1.576,0.908,2.217c0.423,0.643,0.982,1.158,1.672,1.545c0.691,0.389,1.545,0.582,2.562,0.582
		c0.873,0,1.655-0.132,2.345-0.399c0.69-0.267,1.254-0.569,1.69-0.909L221.306,54.849z"/>
	<path fill="#0E405F" d="M224.395,39.217c0.921-0.557,1.993-0.968,3.218-1.235c1.223-0.267,2.501-0.4,3.835-0.4
		c1.26,0,2.271,0.17,3.035,0.509c0.764,0.34,1.345,0.781,1.745,1.327s0.667,1.146,0.8,1.799c0.132,0.654,0.2,1.308,0.2,1.963
		c0,1.454-0.037,2.872-0.108,4.253c-0.073,1.382-0.109,2.691-0.109,3.926c0,0.896,0.037,1.745,0.109,2.544
		c0.072,0.8,0.205,1.539,0.399,2.218h-2.145l-0.762-2.544h-0.183c-0.218,0.34-0.491,0.672-0.818,0.999
		c-0.328,0.328-0.721,0.619-1.182,0.873c-0.461,0.255-0.994,0.467-1.6,0.636c-0.605,0.17-1.296,0.254-2.071,0.254
		c-0.777,0-1.497-0.121-2.164-0.363c-0.667-0.242-1.242-0.587-1.726-1.035c-0.486-0.448-0.867-0.988-1.145-1.618
		c-0.279-0.63-0.418-1.345-0.418-2.145c0-1.066,0.217-1.957,0.654-2.672c0.436-0.715,1.048-1.284,1.836-1.708
		c0.787-0.424,1.732-0.727,2.835-0.909c1.103-0.182,2.32-0.272,3.653-0.272c0.339,0,0.672,0,0.999,0c0.328,0,0.661,0.024,1,0.072
		c0.073-0.727,0.11-1.382,0.11-1.962c0-1.333-0.268-2.266-0.8-2.8c-0.533-0.532-1.503-0.799-2.908-0.799
		c-0.412,0-0.854,0.032-1.327,0.094c-0.473,0.062-0.958,0.149-1.455,0.261s-0.969,0.249-1.417,0.412
		c-0.448,0.162-0.842,0.342-1.182,0.542L224.395,39.217z M229.557,53.794c0.678,0,1.284-0.091,1.817-0.273
		c0.533-0.181,0.994-0.411,1.381-0.69c0.388-0.278,0.71-0.587,0.964-0.927c0.255-0.34,0.442-0.666,0.563-0.981v-3.017
		c-0.339-0.024-0.684-0.042-1.035-0.055c-0.352-0.012-0.697-0.019-1.036-0.019c-0.751,0-1.485,0.043-2.2,0.127
		c-0.715,0.086-1.344,0.243-1.891,0.473c-0.544,0.23-0.981,0.546-1.309,0.946c-0.327,0.4-0.49,0.903-0.49,1.508
		c0,0.848,0.302,1.545,0.909,2.09C227.836,53.521,228.611,53.794,229.557,53.794z"/>
	<path fill="#0E405F" d="M239.742,37.873h2.835v-3.598l2.908-0.836v4.434h4.944v2.545h-4.944v10.069c0,1.261,0.157,2.15,0.473,2.672
		c0.315,0.521,0.848,0.781,1.6,0.781c0.629,0,1.163-0.066,1.6-0.2c0.437-0.132,0.92-0.309,1.454-0.526l0.654,2.217
		c-0.654,0.315-1.37,0.57-2.145,0.764c-0.777,0.194-1.613,0.291-2.508,0.291c-1.479,0-2.521-0.418-3.127-1.254
		c-0.605-0.835-0.908-2.235-0.908-4.198V40.417h-2.835V37.873z"/>
	<path fill="#0E405F" d="M256.244,37.873v10.36c0,0.945,0.055,1.776,0.164,2.491c0.109,0.715,0.296,1.308,0.564,1.781
		c0.267,0.473,0.63,0.83,1.091,1.073c0.46,0.243,1.042,0.363,1.744,0.363c0.655,0,1.237-0.102,1.745-0.308
		c0.51-0.206,0.964-0.491,1.364-0.855c0.399-0.363,0.751-0.781,1.054-1.254c0.302-0.472,0.55-0.975,0.745-1.509V37.873h2.908v13.014
		c0,0.873,0.029,1.776,0.09,2.708c0.061,0.933,0.164,1.751,0.309,2.454h-1.999l-0.728-2.872h-0.182
		c-0.558,0.945-1.309,1.733-2.254,2.362c-0.944,0.63-2.144,0.945-3.599,0.945c-0.969,0-1.823-0.115-2.562-0.345
		s-1.357-0.637-1.854-1.217c-0.497-0.582-0.873-1.363-1.126-2.346c-0.255-0.98-0.382-2.222-0.382-3.725V37.873H256.244z"/>
	<path fill="#0E405F" d="M274.892,37.873v10.36c0,0.945,0.055,1.776,0.164,2.491c0.109,0.715,0.296,1.308,0.563,1.781
		c0.267,0.473,0.63,0.83,1.091,1.073c0.46,0.243,1.041,0.363,1.744,0.363c0.653,0,1.237-0.102,1.745-0.308s0.963-0.491,1.363-0.855
		c0.399-0.363,0.751-0.781,1.054-1.254c0.303-0.472,0.551-0.975,0.745-1.509V37.873h2.908v13.014c0,0.873,0.03,1.776,0.091,2.708
		c0.06,0.933,0.165,1.751,0.31,2.454h-2l-0.727-2.872h-0.182c-0.557,0.945-1.309,1.733-2.254,2.362
		c-0.945,0.63-2.144,0.945-3.598,0.945c-0.97,0-1.824-0.115-2.563-0.345c-0.739-0.23-1.357-0.637-1.854-1.217
		c-0.498-0.582-0.873-1.363-1.126-2.346c-0.256-0.98-0.382-2.222-0.382-3.725V37.873H274.892z"/>
	<path fill="#0E405F" d="M299.429,40.672c-0.727-0.242-1.417-0.364-2.072-0.364c-1.042,0-1.867,0.286-2.472,0.854
		c-0.606,0.57-0.981,1.291-1.126,2.164v12.723h-2.909V37.873h2.036l0.545,2.217h0.146c0.46-0.823,1.011-1.46,1.654-1.908
		c0.642-0.448,1.459-0.672,2.454-0.672c0.702,0,1.491,0.122,2.363,0.363L299.429,40.672z"/>
</g>
<g opacity="0.4">
	<rect x="116.083" fill="#0E405F" width="2.651" height="88.474"/>
</g>
<g>
	<path fill="#E55157" d="M8.216,20.048v36.086h20.63v6.421H0V20.048H8.216z"/>
	<path fill="#E55157" d="M63.517,20.048l-5.995,42.264c-2.758,0.628-5.792,0.943-9.097,0.943c-2.942,0-5.528-0.517-7.76-1.552
		c-2.231-1.034-3.945-2.521-5.142-4.458c-1.197-1.938-1.795-4.153-1.795-6.649c0-3.428,0.792-6.409,2.374-8.946
		c1.582-2.535,3.813-4.472,6.693-5.811c2.88-1.339,6.188-2.008,9.92-2.008h2.13l1.917-13.784H63.517z M54.023,39.43h-1.248
		c-2.536,0-4.707,0.441-6.512,1.324c-1.805,0.883-3.195,2.146-4.168,3.788c-0.973,1.644-1.46,3.56-1.46,5.751
		c0,2.293,0.72,4.118,2.16,5.478c1.441,1.359,3.378,2.039,5.812,2.039c1.257,0,2.231-0.081,2.92-0.243L54.023,39.43z"/>
	<path fill="#E55157" d="M93.245,20.048v6.42H75.536v10.984h17.709v6.481H75.536v18.622h-8.215V20.048H93.245z"/>
</g>
</svg>
